<svg width="94" height="85" viewBox="0 0 94 85" fill="none" xmlns="http://www.w3.org/2000/svg">
<path d="M10.7839 32.3466C10.7839 32.2735 10.7734 32.2527 10.7734 32.2422C12.3812 30.1344 13.4043 27.6926 14.6362 25.376C16.0038 22.7986 17.6533 20.4299 19.7308 18.3533C21.683 16.402 24.0111 15.4629 26.7046 15.5359C28.9491 15.5985 31.1833 15.7968 33.4069 16.0681C38.251 16.6629 43.0951 17.2681 47.9913 17.1846C51.7601 17.122 55.508 16.7255 59.2141 16.0368C60.801 15.7446 62.4087 15.7446 63.9851 16.2037C64.4758 16.3498 64.9665 16.5794 65.3945 16.8716C66.2923 17.4977 66.5429 18.4472 66 19.4073C65.6868 19.9707 65.2379 20.4821 64.7681 20.9203C63.4109 22.1621 61.7719 22.8612 59.9762 23.1847C55.7064 23.9465 51.4469 24.7395 47.1562 25.3865C44.1077 25.856 41.0175 26.1065 37.9482 26.4613C37.8856 26.4717 37.8334 26.4926 37.7812 26.6074C38.8147 26.6804 39.8483 26.7743 40.8818 26.8056C46.8534 26.983 52.6893 26.1691 58.4312 24.4786C60.5296 23.863 62.701 23.4769 64.8412 23.0073C71.7419 21.5256 78.6322 20.0438 85.5329 18.5829C87.2972 18.2072 88.884 18.6664 90.2308 19.8664C90.5544 20.1481 90.8258 20.5238 91.0242 20.8995C91.494 21.8073 91.2539 22.6003 90.3456 23.0804C88.4769 24.0612 86.6186 25.0526 84.7186 25.9708C76.7634 29.8318 68.4742 32.764 59.8092 34.5692C55.2574 35.5084 50.6535 36.1032 46.0287 36.5519C42.1451 36.9275 38.2614 37.3032 34.3987 37.7832C32.2481 38.0441 30.1706 38.6597 28.2601 39.7345C27.665 40.0684 27.0909 40.465 26.548 40.8928C26.2557 41.1224 26.0573 41.1119 25.7546 40.945C21.5369 38.5032 17.2983 36.0719 13.0702 33.6405C12.2976 33.2127 11.5251 32.7744 10.7839 32.3466Z" fill="white"/>
<path d="M19.251 56.9417C19.0944 56.8895 18.7812 56.8164 18.5098 56.6599C12.6322 53.2999 6.765 49.9294 0.897834 46.5589C0.0313301 46.0684 -0.250542 45.1189 0.240129 44.2528C2.29677 40.5692 4.36385 36.8961 6.45181 33.223C6.95292 32.3465 7.92383 32.1482 8.87385 32.6909C13.6657 35.4352 18.4471 38.1796 23.239 40.924C24.2517 41.5084 25.2643 42.0719 26.2665 42.6667C27.3105 43.2719 27.5715 44.1902 26.9869 45.2337C24.9825 48.8024 22.9676 52.3816 20.9527 55.9503C20.6082 56.5556 20.1279 56.9208 19.251 56.9417Z" fill="white"/>
<path d="M29.0646 12.3532C28.9706 12.3114 28.7931 12.2593 28.6365 12.1653C27.7178 11.6645 26.8096 11.1427 25.8804 10.6731C25.703 10.5792 25.3898 10.5792 25.2019 10.6731C24.2518 11.1532 23.3331 11.6958 22.3936 12.1758C22.1743 12.2906 21.788 12.3427 21.621 12.2279C21.454 12.1132 21.3913 11.7271 21.4331 11.4871C21.5792 10.4331 21.7672 9.38965 21.9759 8.34616C22.0386 8.02267 21.9864 7.81397 21.7463 7.59484C20.9737 6.88526 20.2116 6.16525 19.4913 5.41393C19.3138 5.22611 19.1572 4.87132 19.2094 4.65219C19.2512 4.47479 19.627 4.30783 19.8671 4.26609C20.8798 4.0887 21.9029 3.96348 22.926 3.82783C23.2392 3.78609 23.4271 3.6713 23.5733 3.36869C24.0013 2.42954 24.4606 1.51127 24.9095 0.592995C25.0453 0.311251 25.181 -0.0852771 25.5672 0.0295072C25.8178 0.102552 26.0788 0.384293 26.2145 0.634731C26.6843 1.53214 27.1123 2.45041 27.5195 3.36869C27.6552 3.6713 27.8536 3.79652 28.1668 3.82783C29.2003 3.96348 30.2443 4.0887 31.2778 4.27653C31.5179 4.31827 31.8625 4.50609 31.9251 4.70436C31.9877 4.90262 31.8207 5.24698 31.6432 5.42437C30.902 6.18612 30.0981 6.88526 29.3465 7.64701C29.2003 7.7931 29.1063 8.08528 29.1377 8.28354C29.3047 9.36878 29.5239 10.4436 29.7118 11.5184C29.7745 12.0297 29.5657 12.3427 29.0646 12.3532Z" fill="white"/>
<path d="M86.0662 12.3533C85.9618 12.3115 85.7739 12.2385 85.5964 12.1446C84.7195 11.6646 83.8426 11.195 82.9865 10.7045C82.6942 10.5376 82.4645 10.5167 82.1618 10.6941C81.2535 11.2159 80.3348 11.7167 79.4056 12.1863C79.1864 12.3011 78.8001 12.3533 78.6331 12.228C78.4765 12.1133 78.4139 11.7272 78.4452 11.4872C78.5913 10.4541 78.7793 9.42104 78.9776 8.39842C79.0402 8.05407 78.9881 7.81407 78.7062 7.56363C77.9441 6.87492 77.1924 6.16534 76.4825 5.42446C76.305 5.23663 76.1484 4.87141 76.2006 4.65228C76.2528 4.47489 76.6287 4.30792 76.8792 4.26618C77.9128 4.08879 78.9463 3.95314 79.9903 3.82792C80.3243 3.78618 80.4809 3.62965 80.6167 3.33748C81.0551 2.36703 81.504 1.40701 81.9947 0.467868C82.0991 0.269604 82.3705 0.0295982 82.5689 0.0295982C82.7673 0.0295982 83.0387 0.269602 83.1431 0.478301C83.6338 1.41745 84.0827 2.37746 84.5211 3.34791C84.6569 3.65053 84.8239 3.78618 85.1475 3.82792C86.1706 3.95314 87.1937 4.08879 88.2064 4.26618C88.4674 4.30792 88.8745 4.49575 88.9163 4.67315C88.9685 4.91315 88.7806 5.27838 88.5822 5.47664C87.8619 6.21752 87.1102 6.91666 86.3481 7.60536C86.0976 7.82449 86.0558 8.04363 86.1184 8.35668C86.3377 9.43148 86.5256 10.5063 86.7135 11.5915C86.797 12.0611 86.5778 12.3533 86.0662 12.3533Z" fill="white"/>
<path d="M64.7689 12.3636C64.2782 12.3532 64.059 12.061 64.1425 11.581C64.3304 10.5062 64.5183 9.42098 64.7376 8.34618C64.8002 8.0227 64.7376 7.82443 64.487 7.59486C63.7145 6.88529 62.9524 6.17571 62.2216 5.4244C62.0441 5.247 61.8562 4.88178 61.9293 4.70438C62.0232 4.49568 62.3573 4.30786 62.6183 4.26612C63.6518 4.08872 64.6958 3.98437 65.7189 3.80698C65.9382 3.76524 66.1992 3.56697 66.3036 3.36871C66.7838 2.44 67.2118 1.49042 67.6607 0.540844C67.7964 0.2591 67.9322 -0.0852526 68.2976 0.0190968C68.5272 0.0817064 68.7778 0.311273 68.8926 0.530407C69.3833 1.46955 69.8113 2.45044 70.3124 3.38959C70.4168 3.58785 70.6883 3.77567 70.9075 3.81741C71.941 3.99481 72.985 4.09916 74.0081 4.27655C74.2482 4.31829 74.5928 4.50612 74.6554 4.69395C74.718 4.89222 74.551 5.23656 74.3735 5.41396C73.6323 6.17571 72.8389 6.88528 72.0976 7.64703C71.9515 7.79312 71.8575 8.0853 71.8889 8.294C72.0455 9.37924 72.2647 10.454 72.4213 11.5393C72.4526 11.7688 72.3795 12.1236 72.2229 12.2384C72.0559 12.3532 71.6905 12.3115 71.4817 12.2071C70.5212 11.7167 69.5921 11.1636 68.6212 10.6836C68.4437 10.5897 68.1305 10.6001 67.9426 10.694C67.0135 11.174 66.1052 11.6958 65.1865 12.1967C65.0403 12.2697 64.8629 12.3219 64.7689 12.3636Z" fill="white"/>
<path d="M57.5335 12.3533C57.4605 12.322 57.3039 12.2593 57.1577 12.1863C56.2494 11.6959 55.3516 11.2054 54.4538 10.6941C54.1719 10.5272 53.9527 10.5271 53.6708 10.6837C52.7521 11.2159 51.823 11.7272 50.8729 12.2072C50.6537 12.3115 50.2779 12.3428 50.1004 12.2176C49.9542 12.1237 49.902 11.7376 49.9334 11.508C50.09 10.4541 50.2779 9.41061 50.4867 8.36712C50.5493 8.0332 50.4762 7.80363 50.2152 7.57406C49.4427 6.86448 48.691 6.14447 47.9602 5.39316C47.7932 5.21577 47.647 4.87141 47.6992 4.66271C47.741 4.49575 48.0855 4.31836 48.3152 4.27662C49.3487 4.09923 50.3823 3.974 51.4262 3.83835C51.729 3.79661 51.9273 3.68183 52.0735 3.37922C52.512 2.40877 52.9713 1.45919 53.4724 0.509608C53.5873 0.290475 53.8691 0.0295982 54.0779 0.0295982C54.2867 0.0295982 54.5582 0.300908 54.673 0.520042C55.1533 1.44875 55.5917 2.39833 56.0197 3.34791C56.1555 3.64009 56.3329 3.78618 56.6566 3.82792C57.6901 3.95314 58.7341 4.08879 59.7676 4.26618C60.0182 4.30792 60.3627 4.48532 60.4253 4.67315C60.488 4.87141 60.3314 5.22619 60.1644 5.40359C59.4336 6.1549 58.6715 6.86448 57.8989 7.57406C57.6379 7.81406 57.5753 8.04363 57.6379 8.36712C57.8467 9.42104 58.0451 10.4854 58.2225 11.5498C58.2852 12.0715 58.0555 12.3637 57.5335 12.3533Z" fill="white"/>
<path d="M36.2887 7.98102C36.2365 7.90797 36.153 7.77232 36.0381 7.65754C35.2551 6.90622 34.4617 6.17578 33.6996 5.41403C33.5221 5.23663 33.3551 4.89228 33.4177 4.69402C33.4804 4.50619 33.8249 4.31836 34.065 4.27662C35.0985 4.09923 36.1321 3.974 37.1761 3.83835C37.4893 3.79661 37.6876 3.68183 37.8233 3.37922C38.2618 2.40877 38.7107 1.44875 39.1909 0.499171C39.2953 0.290472 39.5668 0.0295982 39.7547 0.0295982C39.9739 0.0400332 40.2558 0.280039 40.3706 0.488738C40.8613 1.42788 41.3207 2.38789 41.7487 3.35834C41.8844 3.66095 42.0723 3.78618 42.3855 3.82792C43.4191 3.96357 44.463 4.08879 45.4966 4.26618C45.7367 4.30792 46.0812 4.48532 46.1439 4.67315C46.2065 4.86098 46.0499 5.21577 45.8829 5.39316C45.1416 6.15491 44.3691 6.88535 43.5965 7.6158C43.3669 7.8245 43.3147 8.01232 43.3773 8.31494C43.5861 9.38974 43.7636 10.475 43.9202 11.5602C43.9515 11.7793 43.8889 12.1341 43.7427 12.2176C43.5652 12.3324 43.2103 12.3115 43.0015 12.2072C42.041 11.7167 41.1014 11.195 40.1618 10.6628C39.9009 10.5167 39.6816 10.5063 39.4206 10.6628C38.5124 11.1845 37.6041 11.6959 36.6645 12.1654C36.4348 12.2802 36.0381 12.322 35.8502 12.2072C35.6936 12.1133 35.631 11.7063 35.6727 11.4559C35.8398 10.3289 36.0694 9.20191 36.2887 7.98102Z" fill="white"/>
<path d="M93.3945 84.083C93.1752 84.1873 93.05 84.3021 92.9769 84.2708C92.862 84.2291 92.7785 84.0934 92.6846 83.9891C92.7785 83.9265 92.8829 83.8012 92.9769 83.8012C93.0813 83.8117 93.1857 83.9369 93.3945 84.083Z" fill="white"/>
</svg>
