<svg width="71" height="70" viewBox="0 0 71 70" fill="none" xmlns="http://www.w3.org/2000/svg">
<path d="M12.0666 43.782C12.5328 43.1274 12.9435 42.4728 13.4319 41.8847C16.2182 38.5229 19.7814 36.6367 24.1439 36.2927C26.7303 36.0819 29.1946 36.5923 31.5146 37.7684C32.3472 38.19 33.213 38.3786 34.1343 38.3786C37.8419 38.3675 41.5605 38.3897 45.2681 38.3675C46.689 38.3564 47.9544 38.7448 49.0534 39.699C49.2088 39.5547 49.3642 39.4105 49.5196 39.2551C52.0283 36.8253 54.5481 34.3954 57.0568 31.9766C59.5988 29.5246 63.8392 30.3678 65.1935 33.6298C65.9594 35.4716 65.7152 37.2358 64.4497 38.8002C60.7311 43.3937 57.0013 47.9761 53.2716 52.5584C52.872 53.0466 52.4834 53.5459 52.0727 54.0341C51.1625 55.1436 49.9747 55.7206 48.5428 55.7206C42.6817 55.7206 36.8318 55.7206 30.9707 55.7206C29.0059 55.7206 27.3852 56.4751 26.0643 57.8953C26.0088 57.9618 25.9755 58.0839 25.9866 58.1726C26.3862 60.0034 25.8978 61.5567 24.5657 62.866C22.5343 64.8742 20.514 66.9046 18.4938 68.9351C17.7167 69.7118 16.5956 69.734 15.8296 68.9684C13.554 66.7049 11.2895 64.4304 9.02504 62.167C6.21662 59.3598 3.39711 56.5416 0.588691 53.7345C0.0447679 53.1909 -0.132842 52.5362 0.100268 51.815C0.189071 51.5487 0.344471 51.2936 0.54428 51.0938C2.66447 48.9524 4.77357 46.8 6.93817 44.714C8.31463 43.3826 9.97969 43.0941 11.8002 43.6933C11.889 43.7266 11.9889 43.7598 12.0666 43.782ZM24.3326 55.6207C24.4436 55.5209 24.5102 55.4543 24.5768 55.3988C26.2863 53.6901 28.351 52.8913 30.7598 52.8913C36.6653 52.9024 42.5707 52.8913 48.4762 52.9024C49.0534 52.9024 49.5196 52.7138 49.8748 52.2699C52.4612 49.0856 55.0365 45.9123 57.6119 42.728C59.1548 40.8307 60.6978 38.9334 62.2519 37.0361C62.9845 36.1374 62.929 34.8059 62.1075 34.0293C61.2306 33.186 59.8986 33.1749 59.0327 34.0071C56.3131 36.6256 53.6046 39.2441 50.8849 41.8515C50.6518 42.0734 50.5408 42.2731 50.6518 42.5948C50.7073 42.7724 50.7073 42.961 50.7184 43.1496C50.8294 46.1231 48.5871 48.4421 45.6122 48.4532C44.0692 48.4532 42.5263 48.4532 40.9944 48.4532C38.7854 48.4532 36.5653 48.4532 34.3563 48.4532C33.5682 48.4532 32.9688 47.8318 32.9688 47.0552C32.9577 46.3007 33.5682 45.6682 34.3563 45.646C34.6672 45.635 34.9669 45.646 35.2777 45.646C38.7188 45.646 42.1711 45.646 45.6122 45.646C47.1663 45.646 48.2319 44.2591 47.8101 42.8167C47.5326 41.8626 46.6113 41.219 45.5345 41.219C41.7382 41.219 37.9307 41.219 34.1343 41.219C32.8356 41.219 31.5812 40.986 30.4157 40.3869C27.9847 39.1331 25.4316 38.767 22.7674 39.3328C19.1598 40.1095 16.3847 42.0956 14.5087 45.3021C14.3755 45.524 14.3866 45.6571 14.5753 45.8458C17.0729 48.32 19.5483 50.8054 22.0348 53.2907C22.8007 54.0674 23.5556 54.833 24.3326 55.6207ZM3.2528 52.3476C7.915 57.0076 12.5328 61.6233 17.1617 66.25C17.1728 66.25 17.1839 66.2389 17.2061 66.2278C19.0821 64.3638 20.9581 62.5109 22.8119 60.6136C23.5445 59.8702 23.489 58.7496 22.7453 57.9951C19.0155 54.256 15.2857 50.528 11.5449 46.8C10.7456 46.0011 9.59118 46.0233 8.79194 46.8221C7.92611 47.6876 7.06027 48.553 6.19444 49.4184C5.21759 50.3948 4.22964 51.3712 3.2528 52.3476Z" fill="white"/>
<path d="M39.9174 31.9878C36.7427 31.9878 33.5568 31.9878 30.3821 31.9878C28.2175 31.9878 26.4636 30.2458 26.4525 28.0823C26.4081 23.3224 30.0602 19.0951 34.7668 18.4737C35.2774 18.4072 35.788 18.3739 36.2987 18.3739C38.7519 18.3628 41.2162 18.3739 43.6694 18.3739C48.0652 18.3739 51.9281 21.3252 53.0604 25.5747C53.3268 26.5844 53.4822 27.6052 53.349 28.6481C53.1048 30.5232 51.4175 31.9878 49.5193 31.9878C46.3113 31.9878 43.1144 31.9878 39.9174 31.9878Z" fill="white"/>
<path d="M61.9407 25.7411C60.098 25.7411 58.2442 25.7411 56.4015 25.7411C55.569 25.7411 54.9585 25.2973 54.6921 24.5207C53.8373 21.9798 52.3054 19.9716 50.0964 18.4515C49.0752 17.7525 49.0308 16.41 49.9854 15.6222C51.5617 14.3352 53.3711 13.6584 55.4136 13.6473C57.6781 13.6362 59.9315 13.6362 62.196 13.6473C66.4363 13.6584 70.0995 16.8427 70.6656 21.0367C70.7544 21.6913 70.7766 22.3904 70.6434 23.0339C70.3104 24.6871 68.8784 25.73 67.0913 25.7411C66.2365 25.7411 65.3707 25.7411 64.5159 25.7411C63.6612 25.7522 62.8065 25.7522 61.9407 25.7411C61.9407 25.7522 61.9407 25.7522 61.9407 25.7411Z" fill="white"/>
<path d="M17.8941 25.7522C16.1735 25.7522 14.453 25.7522 12.7435 25.7522C10.5678 25.7522 9.05812 24.2321 9.08032 22.0574C9.11362 18.0853 12.1885 14.4571 16.0958 13.8136C16.8174 13.6916 17.5722 13.6694 18.3048 13.6694C20.5027 13.6583 22.7117 13.625 24.9096 13.6916C26.7967 13.7471 28.4617 14.4793 29.9048 15.6887C30.8262 16.4654 30.7151 17.7968 29.6939 18.4958C27.9511 19.683 26.6191 21.2253 25.7088 23.1337C25.4979 23.5664 25.3314 24.0213 25.1649 24.4762C24.8541 25.3416 24.2769 25.7633 23.3555 25.7633C21.524 25.7522 19.7146 25.7522 17.8941 25.7522Z" fill="white"/>
<path d="M39.9071 2.9846C43.7478 2.9846 46.8338 6.08019 46.8227 9.91917C46.8116 13.736 43.7256 16.7983 39.8849 16.7983C36.0996 16.7983 33.0137 13.6916 33.0137 9.91917C33.0137 6.08019 36.0996 2.9846 39.9071 2.9846Z" fill="white"/>
<path d="M52.6836 6.14682C52.6836 2.72947 55.4254 2.39136e-05 58.8443 0.0111192C62.1856 0.0222145 64.9385 2.77385 64.9385 6.11354C64.9385 9.53089 62.1967 12.2714 58.7889 12.2714C55.4365 12.2492 52.6836 9.4976 52.6836 6.14682Z" fill="white"/>
<path d="M21.0582 0C24.4328 0.0110953 27.1635 2.77383 27.1524 6.19118C27.1413 9.56416 24.3662 12.2603 20.9139 12.2603C17.606 12.2492 14.8864 9.46429 14.8975 6.09132C14.8975 2.71835 17.6615 0 21.0582 0Z" fill="white"/>
<path d="M10.3791 52.9024C9.46886 52.9024 8.76953 52.2034 8.76953 51.2936C8.76953 50.3949 9.47997 49.6848 10.3902 49.6848C11.2782 49.6848 11.9887 50.406 11.9887 51.2825C11.9887 52.1923 11.2893 52.8913 10.3791 52.9024Z" fill="white"/>
</svg>
