<svg width="68" height="66" viewBox="0 0 68 66" fill="none" xmlns="http://www.w3.org/2000/svg">
<path d="M67.5632 4.00318C67.5632 18.8624 67.5632 33.7216 67.5632 48.5808C66.6235 51.3139 64.6135 52.2206 61.84 52.188C55.2945 52.1097 48.7424 52.1619 42.1903 52.1619C41.6878 52.1619 41.1853 52.1619 40.5197 52.1619C40.7089 53.2055 40.8003 54.0405 41.0222 54.8298C41.7857 57.5694 43.4433 58.8153 46.2886 58.874C47.0783 58.887 47.8744 58.8413 48.6575 58.9261C50.7197 59.1414 52.1685 61.1309 51.6986 63.0552C51.3071 64.6859 49.8453 65.6708 47.757 65.6708C38.4379 65.6774 29.1188 65.6774 19.7998 65.6708C19.4474 65.6708 19.095 65.6708 18.7491 65.6121C16.9871 65.3382 15.7471 63.864 15.8059 62.1289C15.8581 60.4982 17.1959 59.0892 18.9057 58.9131C19.6497 58.8413 20.4001 58.8805 21.1441 58.8674C24.89 58.8022 27.272 56.0169 26.7825 52.1488C26.28 52.1488 25.7645 52.1488 25.2424 52.1488C18.736 52.1488 12.2297 52.0901 5.72328 52.1749C2.94975 52.2075 0.939738 51.3074 0 48.5678C0 33.7085 0 18.8493 0 3.99013C0.913634 1.25051 2.89099 0.31773 5.6841 0.324253C24.4136 0.369913 43.1431 0.369913 61.8726 0.324253C64.6722 0.324253 66.6431 1.26355 67.5632 4.00318ZM60.7175 7.21898C42.7385 7.21898 24.8313 7.21898 6.85226 7.21898C6.85226 18.4254 6.85226 29.56 6.85226 40.7794C24.8313 40.7794 42.7385 40.7794 60.7175 40.7794C60.7175 29.56 60.7175 18.4254 60.7175 7.21898ZM2.27104 43.3038C2.27104 44.4779 2.27104 45.4889 2.27104 46.5C2.27757 49.2657 2.90405 49.8919 5.6841 49.8919C24.4136 49.8919 43.1431 49.8919 61.8791 49.8919C62.3164 49.8919 62.7667 49.9245 63.1974 49.8593C64.3068 49.6962 65.1421 49.1157 65.2074 47.9416C65.2988 46.4217 65.227 44.8953 65.227 43.2972C44.2395 43.3038 23.3368 43.3038 2.27104 43.3038ZM4.50291 40.8316C4.50291 40.0814 4.50291 39.4683 4.50291 38.8616C4.50291 28.2684 4.50291 17.6817 4.50291 7.08852C4.50291 5.1186 4.75742 4.85768 6.663 4.85768C24.7334 4.85768 42.8038 4.85768 60.8741 4.85768C62.8189 4.85768 63.0734 5.10555 63.0734 7.04938C63.0734 17.6817 63.0734 28.3206 63.0734 38.953C63.0734 39.5531 63.0734 40.1532 63.0734 40.8055C63.8696 40.8055 64.5026 40.8055 65.2204 40.8055C65.2531 40.3554 65.3053 39.9705 65.3053 39.5857C65.3118 28.2489 65.3183 16.912 65.3053 5.5752C65.3053 3.33784 64.5613 2.65293 62.2381 2.65293C43.2867 2.65293 24.3418 2.65293 5.39045 2.65293C2.95627 2.65293 2.28409 3.33132 2.28409 5.8035C2.27756 16.9642 2.27756 28.1249 2.28409 39.2922C2.28409 39.7944 2.3363 40.3032 2.36893 40.8381C3.11289 40.8316 3.71327 40.8316 4.50291 40.8316ZM40.1803 58.8218C39.456 56.6627 38.7446 54.5362 38.0072 52.3184C35.2467 52.3184 32.2839 52.3184 29.5756 52.3184C28.8121 54.5884 28.0942 56.7149 27.3829 58.8218C31.5726 58.8218 35.9515 58.8218 40.1803 58.8218ZM33.7001 63.3748C38.3139 63.3748 42.9343 63.3748 47.5481 63.3748C47.9005 63.3748 48.3378 63.4857 48.5792 63.3161C48.9577 63.0551 49.4015 62.6181 49.4472 62.2202C49.4798 61.9202 48.9838 61.4505 48.6184 61.2548C48.3051 61.0852 47.8483 61.1766 47.4502 61.1831C39.0579 61.1961 30.659 61.2092 22.2666 61.2222C21.2094 61.2222 20.1456 61.1048 19.108 61.2548C18.7164 61.3135 18.1944 61.9202 18.1291 62.3376C18.0834 62.6246 18.6773 63.0943 19.0819 63.3356C19.3429 63.4922 19.7671 63.3813 20.1195 63.3813C24.642 63.3748 29.171 63.3748 33.7001 63.3748Z" fill="white"/>
<path d="M50.798 30.7536C51.8552 31.719 52.6644 32.4561 53.4671 33.1932C54.2633 33.9303 54.322 34.6478 53.4932 35.4306C52.6318 36.2459 51.7964 37.0874 50.9807 37.9549C50.165 38.816 49.408 38.7768 48.6314 37.9223C47.92 37.1461 47.2022 36.3764 46.1645 35.261C45.6686 35.9459 45.3553 36.546 44.8855 36.983C43.9849 37.8245 43.2083 37.6027 42.7711 36.4677C42.7384 36.3894 42.7319 36.2981 42.7058 36.2133C42.3599 35.1827 42.2946 33.7216 41.5768 33.2258C40.7872 32.6844 39.3841 33.0106 38.2486 33.0106C31.0374 33.004 23.8262 33.004 16.6215 33.004C14.8987 33.004 14.6442 32.7562 14.6311 31.0211C14.5985 24.4721 14.5724 17.9296 14.5528 11.3806C14.5463 9.67156 14.9378 9.29323 16.6346 9.29323C26.5279 9.29323 36.4148 9.29323 46.3081 9.29323C48.168 9.29323 48.5074 9.63243 48.5008 11.5371C48.4747 16.0184 48.4682 20.4996 48.3834 24.9808C48.3638 25.9723 48.6053 26.5333 49.6494 26.7029C50.3803 26.8203 51.0917 27.0878 51.7899 27.3421C53.0038 27.7857 53.2191 28.588 52.3512 29.5338C51.9792 29.9513 51.4701 30.2448 50.798 30.7536ZM40.9764 30.6884C40.5326 29.2142 40.0563 27.8575 39.73 26.4681C39.5733 25.8027 39.4363 24.7982 39.7887 24.4394C40.1411 24.0807 41.1461 24.1851 41.8117 24.3351C43.2474 24.6547 44.644 25.1309 46.0732 25.5483C46.0732 22.7304 46.0732 20.0365 46.0732 17.3099C36.3234 17.3099 26.678 17.3099 16.9609 17.3099C16.9609 21.7911 16.9609 26.2072 16.9609 30.6819C24.9682 30.6884 32.8908 30.6884 40.9764 30.6884ZM16.9348 14.9551C26.7107 14.9551 36.3626 14.9551 46.0536 14.9551C46.0536 13.8201 46.0536 12.7634 46.0536 11.7328C36.2843 11.7328 26.6324 11.7328 16.9348 11.7328C16.9348 12.8156 16.9348 13.8201 16.9348 14.9551ZM51.1961 34.4391C50.674 32.5409 46.7193 31.9865 49.5776 29.0251C47.1369 28.3141 44.8267 27.6487 42.3273 26.9182C43.0713 29.4556 43.7499 31.7582 44.4417 34.1325C46.3473 32.6453 46.5561 32.6453 48.1811 34.3086C48.6966 34.8305 49.1012 35.4567 49.6755 36.1807C50.3673 35.3849 50.7915 34.8957 51.1961 34.4391Z" fill="white"/>
<path d="M33.9149 45.4106C34.9656 45.4106 36.0359 45.2998 37.0605 45.4628C37.5042 45.5346 37.8631 46.1673 38.2612 46.5456C37.8827 46.8979 37.5238 47.5436 37.1322 47.5632C34.9069 47.6611 32.6685 47.6611 30.4366 47.5632C30.0451 47.5436 29.6861 46.9044 29.3076 46.5456C29.7057 46.1673 30.0646 45.5281 30.5084 45.4628C31.6243 45.3063 32.7729 45.4106 33.9149 45.4106Z" fill="white"/>
<path d="M24.72 28.5228C23.3561 28.5228 21.9987 28.5163 20.6348 28.5228C19.6559 28.5293 19.1665 28.0531 19.1599 27.0812C19.1534 25.7636 19.1599 24.446 19.1664 23.1283C19.1664 22.2086 19.6624 21.739 20.5565 21.739C23.3692 21.7259 26.1818 21.739 28.9945 21.752C29.8821 21.7585 30.3911 22.176 30.3846 23.1218C30.3715 24.4394 30.365 25.7571 30.3846 27.0747C30.4041 28.0792 29.9147 28.5163 28.9423 28.5163C27.5327 28.5163 26.1231 28.5228 24.72 28.5228ZM21.431 26.1354C23.7346 26.1354 25.9013 26.1354 28.0744 26.1354C28.0744 25.3853 28.0744 24.7525 28.0744 24.1263C25.8034 24.1263 23.6237 24.1263 21.431 24.1263C21.431 24.8308 21.431 25.4309 21.431 26.1354Z" fill="white"/>
</svg>
