<svg width="56" height="56" viewBox="0 0 56 56" fill="none" xmlns="http://www.w3.org/2000/svg">
<path d="M32.5529 22.3108C33.2768 23.145 34.54 23.2345 35.3743 22.5106C36.2086 21.7867 36.298 20.5235 35.5741 19.6892L32.5529 22.3108ZM23.4471 33.6892C22.7232 32.855 21.4601 32.7655 20.6258 33.4894C19.7915 34.2133 19.702 35.4765 20.4259 36.3108L23.4471 33.6892ZM30 16.3333C30 15.2288 29.1046 14.3333 28 14.3333C26.8954 14.3333 26 15.2288 26 16.3333H30ZM26 39.6666C26 40.7712 26.8954 41.6666 28 41.6667C29.1045 41.6667 30 40.7713 30 39.6667L26 39.6666ZM47 28C47 38.4934 38.4934 47 28 47V51C40.7025 51 51 40.7025 51 28H47ZM28 47C17.5066 47 9 38.4934 9 28H5C5 40.7025 15.2975 51 28 51V47ZM9 28C9 17.5066 17.5066 9 28 9V5C15.2975 5 5 15.2975 5 28H9ZM28 9C38.4934 9 47 17.5066 47 28H51C51 15.2975 40.7025 5 28 5V9ZM28 26C26.4068 26 25.0549 25.5659 24.1597 24.9691C23.2505 24.3629 23 23.7452 23 23.3333H19C19 25.4988 20.3165 27.2144 21.9409 28.2973C23.5791 29.3895 25.7272 30 28 30V26ZM23 23.3333C23 22.9214 23.2505 22.3037 24.1597 21.6976C25.0549 21.1008 26.4068 20.6667 28 20.6667V16.6667C25.7272 16.6667 23.5791 17.2772 21.9409 18.3694C20.3165 19.4523 19 21.1679 19 23.3333H23ZM28 20.6667C30.1777 20.6667 31.8194 21.4654 32.5529 22.3108L35.5741 19.6892C33.887 17.7449 31.0043 16.6667 28 16.6667V20.6667ZM28 30C29.5932 30 30.9452 30.4341 31.8404 31.0309C32.7496 31.6371 33 32.2548 33 32.6667H37C37 30.5012 35.6835 28.7856 34.0592 27.7027C32.4209 26.6105 30.2728 26 28 26V30ZM26 16.3333V18.6667H30V16.3333H26ZM26 37.3333L26 39.6666L30 39.6667L30 37.3334L26 37.3333ZM28.0001 35.3333C25.8224 35.3333 24.1807 34.5346 23.4471 33.6892L20.4259 36.3108C22.113 38.2551 24.9958 39.3333 28 39.3333L28.0001 35.3333ZM33 32.6667C33 33.0786 32.7496 33.6963 31.8404 34.3024C30.9452 34.8992 29.5933 35.3333 28 35.3333V39.3333C30.2728 39.3333 32.4209 38.7228 34.0592 37.6306C35.6835 36.5477 37 34.8321 37 32.6667H33ZM26 18.6667L26 37.3333L30 37.3333L30 18.6667L26 18.6667Z" fill="white"/>
</svg>
