<svg width="74" height="39" viewBox="0 0 74 39" fill="none" xmlns="http://www.w3.org/2000/svg">
<path d="M36.6448 38.0122C32.8722 38.0122 29.0863 38.0122 25.3137 38.0122C22.7414 38.0122 20.6572 35.9422 20.644 33.3711C20.5913 27.7148 24.9311 22.6913 30.5242 21.953C31.1309 21.8739 31.7377 21.8343 32.3445 21.8343C35.2598 21.8211 38.1882 21.8343 41.1034 21.8343C46.3271 21.8343 50.9176 25.3415 52.2631 30.3913C52.5797 31.5912 52.7643 32.8042 52.606 34.0436C52.3158 36.2718 50.3108 38.0122 48.0551 38.0122C44.2429 38.0122 40.4439 38.0122 36.6448 38.0122Z" fill="white"/>
<path d="M62.8167 30.5891C60.627 30.5891 58.424 30.5891 56.2343 30.5891C55.245 30.5891 54.5195 30.0617 54.2029 29.1387C53.1872 26.1194 51.3668 23.7329 48.7418 21.9266C47.5282 21.0959 47.4754 19.5006 48.6099 18.5644C50.483 17.035 52.6332 16.2307 55.0603 16.2175C57.7513 16.2043 60.4291 16.2043 63.1201 16.2175C68.1591 16.2307 72.5121 20.0148 73.1849 24.9987C73.2904 25.7766 73.3168 26.6072 73.1585 27.372C72.7628 29.3365 71.0611 30.5759 68.9373 30.5891C67.9216 30.5891 66.8927 30.5891 65.877 30.5891C64.8613 30.6023 63.8456 30.6023 62.8167 30.5891C62.8167 30.6023 62.8167 30.6023 62.8167 30.5891Z" fill="white"/>
<path d="M10.474 30.6023C8.42938 30.6023 6.38478 30.6023 4.35335 30.6023C1.7679 30.6023 -0.026095 28.7959 0.000287155 26.2117C0.0398605 21.4915 3.69381 17.18 8.33707 16.4153C9.1945 16.2702 10.0915 16.2439 10.9621 16.2439C13.5739 16.2307 16.199 16.1911 18.8108 16.2702C21.0533 16.3362 23.0319 17.2064 24.7468 18.6435C25.8416 19.5665 25.7097 21.1487 24.4962 21.9793C22.4251 23.3901 20.8422 25.2228 19.7606 27.4906C19.5099 28.0048 19.3121 28.5454 19.1142 29.086C18.7449 30.1144 18.0589 30.6155 16.964 30.6155C14.7875 30.6023 12.6373 30.6023 10.474 30.6023Z" fill="white"/>
<path d="M36.6321 3.54674C41.1962 3.54674 44.8634 7.22534 44.8502 11.7873C44.837 16.323 41.1698 19.962 36.6057 19.962C32.1076 19.962 28.4404 16.2702 28.4404 11.7873C28.4404 7.22534 32.1075 3.54674 36.6321 3.54674Z" fill="white"/>
<path d="M51.8154 7.30452C51.8154 3.24355 55.0736 5.39543e-05 59.1365 0.0132389C63.107 0.0264239 66.3784 3.29629 66.3784 7.26496C66.3784 11.3259 63.1202 14.5826 59.0705 14.5826C55.0868 14.5562 51.8154 11.2864 51.8154 7.30452Z" fill="white"/>
<path d="M14.2332 0C18.2433 0.013185 21.4883 3.29624 21.4751 7.35721C21.4619 11.3654 18.1641 14.5694 14.0617 14.5694C10.1308 14.5562 6.89896 11.2468 6.91215 7.23854C6.91215 3.23031 10.1967 0 14.2332 0Z" fill="white"/>
</svg>
