<svg width="68" height="69" viewBox="0 0 68 69" fill="none" xmlns="http://www.w3.org/2000/svg">
<path d="M63.959 0.950684C64.1027 1.00362 64.2388 1.06413 64.3824 1.10194C66.4088 1.67673 67.7925 3.39352 67.921 5.50358C67.9286 5.65484 67.9286 5.81366 67.9286 5.96492C67.9286 21.0076 67.9286 36.0579 67.9286 51.1006C67.9286 54.0804 65.9098 56.0922 62.9231 56.0998C56.2845 56.1073 49.6535 56.0998 43.0149 56.0998C42.7351 56.0998 42.4478 56.0998 42.0924 56.0998C42.0924 56.9922 42.1 57.8014 42.0924 58.6106C42.0849 59.3896 41.7144 59.8283 41.0793 59.8132C40.4895 59.798 40.1114 59.3594 40.1039 58.6258C40.0887 57.809 40.1039 56.9922 40.1039 56.1376C36.0058 56.1376 31.9682 56.1376 27.8852 56.1376C27.8852 59.7148 27.8852 63.2694 27.8852 66.877C31.9228 66.877 35.9755 66.877 40.1039 66.877C40.1039 65.9921 40.1039 65.1148 40.1039 64.2375C40.1039 64.0182 40.0963 63.7913 40.1114 63.5719C40.1644 62.9064 40.5651 62.5131 41.1549 62.5358C41.7219 62.5585 42.0773 62.9442 42.0924 63.6022C42.1076 64.4644 42.1 65.3266 42.1 66.1887C42.1 66.4081 42.1 66.6198 42.1 66.9299C43.2266 66.9299 44.3003 66.9299 45.3739 66.9299C45.6159 66.9299 45.8654 66.9072 46.0998 66.9526C46.6215 67.0509 46.9315 67.3988 46.9315 67.9206C46.9391 68.4425 46.6291 68.7904 46.1149 68.9038C45.9032 68.9492 45.6764 68.9265 45.4571 68.9265C37.8053 68.9265 30.1459 68.9265 22.4942 68.9265C22.3429 68.9265 22.1842 68.9341 22.0329 68.9265C21.4205 68.8887 20.9971 68.4727 21.0046 67.9282C21.0046 67.3837 21.428 66.9526 22.0481 66.945C23.2881 66.9299 24.5205 66.9375 25.8059 66.9375C25.8059 63.3299 25.8059 59.7602 25.8059 56.1073C25.5035 56.1073 25.2237 56.1073 24.944 56.1073C18.5927 56.1073 12.2414 56.0241 5.89764 56.1451C2.69175 56.2056 0.604885 54.8367 0 51.9401C0 36.3151 0 20.69 0 5.07249C0.310003 3.98343 0.657823 2.87924 1.61808 2.20613C2.33638 1.69942 3.19078 1.36664 3.97713 0.958245C23.961 0.950682 43.96 0.950684 63.959 0.950684ZM65.94 43.7343C65.94 43.4545 65.94 43.2125 65.94 42.9705C65.94 30.6882 65.94 18.406 65.94 6.12374C65.94 4.02124 64.8512 2.93974 62.7568 2.93974C43.5517 2.93974 24.3542 2.93974 5.14908 2.93974C3.09247 2.93974 1.99613 4.0288 1.99613 6.08593C1.99613 18.3909 1.99613 30.6958 1.99613 42.9931C1.99613 43.2276 1.99613 43.4621 1.99613 43.7268C23.341 43.7343 44.6103 43.7343 65.94 43.7343ZM2.04904 45.8141C2.01124 45.9427 1.99613 45.9805 1.99613 46.0259C1.98857 47.6595 1.98856 49.3007 1.98856 50.9343C1.98856 53.0368 3.0698 54.1107 5.17933 54.1107C8.74059 54.1107 12.3019 54.1107 15.8631 54.1107C31.5069 54.1107 47.1432 54.1107 62.7871 54.1107C64.8512 54.1107 65.94 53.0216 65.94 50.9645C65.94 49.4595 65.94 47.9544 65.94 46.4494C65.94 46.2377 65.9249 46.0259 65.9098 45.8141C44.5725 45.8141 23.3183 45.8141 2.04904 45.8141Z" fill="white"/>
<path d="M33.949 48.9603C34.5841 48.9603 35.2268 48.9452 35.8619 48.9679C36.5197 48.9906 36.8978 49.346 36.9205 49.9057C36.9432 50.4956 36.5575 50.9267 35.8846 50.9418C34.6068 50.9721 33.329 50.9721 32.0512 50.9418C31.3631 50.9267 30.9775 50.5259 30.9926 49.936C31.0002 49.346 31.3933 49.0057 32.0965 48.9679C32.1419 48.9679 32.1872 48.9679 32.225 48.9679C32.7997 48.9528 33.3743 48.9528 33.949 48.9603Z" fill="white"/>
</svg>
