<svg width="63" height="63" viewBox="0 0 63 63" fill="none" xmlns="http://www.w3.org/2000/svg">
<path d="M62.0365 53.7191C60.3626 53.7191 58.6887 53.7191 56.9567 53.7191C56.9567 56.5431 56.9567 59.3188 56.9567 62.1235C51.4317 62.1235 45.9746 62.1235 40.4496 62.1235C40.4496 59.3478 40.4496 56.5625 40.4496 53.7288C38.708 53.7288 37.034 53.7288 35.3214 53.7288C35.302 53.5547 35.2827 53.4386 35.2827 53.3129C35.2827 49.5217 35.2633 45.7305 35.2924 41.949C35.3117 39.6569 35.9407 37.5582 37.4501 35.7884C38.6983 34.328 40.2561 33.564 42.2203 33.5736C46.468 33.6026 50.7157 33.622 54.9538 33.564C57.4211 33.5349 59.2112 34.6181 60.5368 36.6008C61.456 37.9838 62.0075 39.5312 62.0268 41.185C62.0849 45.2857 62.0558 49.3863 62.0655 53.4966C62.0752 53.5547 62.0559 53.6224 62.0365 53.7191ZM59.0273 50.8273C59.0273 47.6068 59.0563 44.4733 59.008 41.3494C58.9886 40.0825 58.5822 38.8832 57.8275 37.8387C57.1211 36.8716 56.2213 36.3396 54.9634 36.3493C50.7641 36.388 46.5648 36.3977 42.3654 36.3493C40.9624 36.33 40.0045 36.9393 39.2788 38.0418C38.4951 39.2314 38.2048 40.566 38.2048 41.9684C38.1951 44.7537 38.2048 47.5391 38.2048 50.3341C38.2048 50.4888 38.2242 50.6339 38.2338 50.837C39.9561 50.837 41.6397 50.837 43.362 50.837C43.362 53.6611 43.362 56.4271 43.362 59.2124C46.8841 59.2124 50.3674 59.2124 53.8991 59.2124C53.8991 56.4174 53.8991 53.6514 53.8991 50.8273C55.6214 50.8273 57.305 50.8273 59.0273 50.8273Z" fill="white"/>
<path d="M26.7194 53.7191C25.0358 53.7191 23.3619 53.7191 21.6396 53.7191C21.6396 56.5432 21.6396 59.3188 21.6396 62.1235C16.105 62.1235 10.6381 62.1235 5.12285 62.1235C5.12285 59.3382 5.12285 56.5722 5.12285 53.7481C3.41022 53.7481 1.74596 53.7481 0.0333268 53.7481C0.023651 53.545 0.00430039 53.4 0.00430039 53.2549C0.00430039 49.4927 -0.00537549 45.7402 0.00430039 41.9781C0.0139763 39.5119 0.72999 37.2875 2.4523 35.4596C3.64243 34.2023 5.09382 33.564 6.84515 33.5737C11.1412 33.593 15.4277 33.6123 19.7237 33.564C21.9589 33.5446 23.6521 34.4731 24.9487 36.2139C26.1776 37.8677 26.7387 39.7537 26.7581 41.7943C26.7871 45.6435 26.7678 49.5024 26.7678 53.3516C26.7484 53.458 26.7291 53.5644 26.7194 53.7191ZM23.6812 50.8177C23.6812 47.5585 23.7199 44.3669 23.6618 41.1754C23.6425 39.8794 23.178 38.6608 22.3362 37.626C21.6589 36.7845 20.8268 36.3397 19.7044 36.3493C15.447 36.3784 11.1896 36.388 6.92255 36.3397C5.48084 36.3203 4.50358 36.949 3.77789 38.0999C3.0522 39.2411 2.75225 40.508 2.75225 41.8524C2.74257 44.6861 2.75225 47.5198 2.75225 50.3535C2.75225 50.4889 2.76194 50.6243 2.77162 50.8371C4.48425 50.8371 6.17752 50.8371 7.90951 50.8371C7.90951 53.6708 7.90951 56.4368 7.90951 59.2125C11.4702 59.2125 14.9826 59.2125 18.5626 59.2125C18.5626 56.4078 18.5626 53.6321 18.5626 50.8177C20.2946 50.8177 21.9685 50.8177 23.6812 50.8177Z" fill="white"/>
<path d="M23.4396 14.376C23.1397 14.376 22.8978 14.3856 22.6559 14.376C21.8044 14.3276 21.2045 13.7473 21.2045 12.8962C21.1948 9.09538 21.1948 5.28487 21.2045 1.48402C21.2045 0.555565 21.8334 0.00429839 22.8301 0.00429839C28.326 0.00429839 33.8219 0.00429839 39.3178 0.00429839C40.1015 0.00429839 40.8853 -0.00537298 41.669 0.00429839C42.6366 0.0139698 43.2268 0.584583 43.2268 1.55172C43.2365 5.3429 43.2365 9.1244 43.2268 12.9156C43.2268 13.9021 42.6172 14.4823 41.6303 14.4823C37.9051 14.4823 34.1799 14.492 30.445 14.4727C30.1063 14.4727 29.8644 14.5597 29.6226 14.8015C28.4131 16.0298 27.1939 17.2387 25.9747 18.4573C25.4426 18.9892 24.862 19.1246 24.2718 18.8635C23.6525 18.583 23.4396 18.0607 23.4396 17.4128C23.4396 16.4166 23.4396 15.4205 23.4396 14.376ZM24.146 2.93472C24.146 5.8458 24.146 8.69886 24.146 11.6003C26.0618 11.3488 26.5359 12.4223 26.3811 14.0955C27.0778 13.4475 27.6874 12.8479 28.2679 12.2192C28.7033 11.7453 29.2065 11.5713 29.8451 11.5713C33.1833 11.5906 36.5118 11.5809 39.8499 11.5809C40.0338 11.5809 40.2176 11.5809 40.4208 11.5809C40.4208 8.66984 40.4208 5.81679 40.4208 2.93472C34.983 2.93472 29.5742 2.93472 24.146 2.93472Z" fill="white"/>
<path d="M48.6066 32.6452C43.7106 32.6258 39.7726 28.6702 39.7822 23.7862C39.8016 18.9118 43.7977 14.9562 48.6744 14.9853C53.551 15.0046 57.4891 18.9892 57.4697 23.8829C57.4504 28.7379 53.4833 32.6645 48.6066 32.6452ZM54.5573 23.97C54.5573 20.7107 51.9158 18.0607 48.6453 18.0511C45.4329 18.0414 42.7043 20.7494 42.6947 23.9603C42.685 27.1615 45.4136 29.8985 48.626 29.8985C51.848 29.8985 54.5573 27.1905 54.5573 23.97Z" fill="white"/>
<path d="M13.2795 32.6452C8.39323 32.6259 4.4358 28.7089 4.45515 23.9023C4.4745 19.0376 8.47064 15.111 13.3763 15.14C18.1949 15.169 22.1717 19.1343 22.1427 23.9119C22.1136 28.7089 18.1078 32.6645 13.2795 32.6452ZM19.2205 23.97C19.2205 20.7494 16.5113 18.0511 13.2892 18.0511C9.9704 18.0511 7.35792 20.672 7.3676 23.9893C7.37727 27.2389 10.0478 29.8985 13.2989 29.8985C16.5113 29.8985 19.2302 27.1809 19.2205 23.97Z" fill="white"/>
</svg>
