<svg xmlns="http://www.w3.org/2000/svg" xmlns:xlink="http://www.w3.org/1999/xlink" id="Layer_1" x="0px" y="0px" viewBox="0 0 71 71" style="enable-background:new 0 0 71 71;" xml:space="preserve"><style type="text/css">	.st0{fill:#F48029;}	.st1{fill:#FFFFFF;}</style><path class="st0" d="M-147-50.5L-147-50.5c23.5,0,42.5,19,42.5,42.5l0,0c0,23.5-19,42.5-42.5,42.5l0,0c-23.5,0-42.5-19-42.5-42.5 l0,0C-189.5-31.5-170.5-50.5-147-50.5z"></path><g>	<path class="st0" d="M60.5,70.5h-50c-5.5,0-10-4.5-10-10v-50c0-5.5,4.5-10,10-10h50c5.5,0,10,4.5,10,10v50  C70.5,66,66,70.5,60.5,70.5z"></path>	<g>		<path class="st1" d="M27.6,26.3l6.6,6.6l3.6-3.6L25,16.5L12.3,29.2l3.6,3.6l6.6-6.6v41.2h5.1V26.3z"></path>		<path class="st1" d="M48.5,13.3l6.6,6.6l3.6-3.6L46,3.5L33.3,16.3l3.6,3.6l6.6-6.6v41.2h5.1V13.3z"></path>	</g></g></svg>