<svg width="85" height="85" viewBox="0 0 85 85" fill="none" xmlns="http://www.w3.org/2000/svg">
<rect width="85" height="85" rx="10" fill="#F48029"/>
<path d="M13 57.0891C13.097 56.6883 13.1681 56.281 13.2844 55.893C14.2023 52.796 16.1673 50.7206 19.2894 49.809C19.7354 49.6797 19.7741 49.4534 19.7741 49.0784C19.7677 43.156 19.7677 37.2336 19.7677 31.3176C19.7677 31.0913 19.7612 30.8586 19.7871 30.6387C19.8453 30.2056 20.1103 29.9599 20.5433 29.9275C20.9958 29.8952 21.3125 30.115 21.4224 30.5612C21.4741 30.781 21.4741 31.0138 21.4741 31.2336C21.4741 35.3392 21.4741 39.4448 21.4741 43.5504C21.4741 43.7573 21.4741 43.9577 21.4741 44.2939C21.6487 44.0935 21.7456 43.9965 21.8232 43.893C22.754 42.6258 23.8787 41.5719 25.262 40.8155C25.6369 40.6086 25.7338 40.3758 25.7338 39.9685C25.7209 33.2896 25.7274 26.6107 25.7274 19.9319C25.7274 18.9685 25.8761 18.7875 26.8521 18.5676C25.7726 17.4168 24.7125 16.2918 23.6072 15.1086C22.5213 16.2595 21.4547 17.3974 20.3753 18.5483C21.3707 18.8327 21.4806 18.975 21.4806 19.9836C21.4806 22.2918 21.4806 24.6 21.4806 26.9082C21.4806 27.1344 21.4741 27.3672 21.4224 27.5806C21.3125 28.0008 21.0023 28.2013 20.5757 28.1754C20.149 28.1495 19.8711 27.9103 19.8065 27.4836C19.7741 27.2961 19.7806 27.1086 19.7806 26.9146C19.7806 24.9491 19.7806 22.9771 19.7806 21.0116C19.7806 20.8112 19.7806 20.6107 19.7806 20.3392C19.257 20.3392 18.7981 20.4039 18.365 20.3198C18.0741 20.2616 17.6992 20.0612 17.5893 19.8155C17.4795 19.5763 17.5505 19.1043 17.7315 18.9039C19.4509 17.0159 21.2091 15.1668 22.9673 13.3112C23.3681 12.8909 23.8593 12.8974 24.2666 13.3241C26.0118 15.1603 27.757 17.003 29.4635 18.878C29.6574 19.0914 29.7285 19.5698 29.6251 19.8349C29.5346 20.0676 29.1274 20.2616 28.8365 20.3133C28.4164 20.3909 27.9768 20.3327 27.492 20.3327C27.492 26.8306 27.492 33.2896 27.492 39.6646C28.9464 39.5224 30.4202 39.3801 31.9392 39.2379C31.9392 35.4814 31.9392 31.6344 31.9392 27.6905C31.5061 27.6905 31.0536 27.7551 30.627 27.6711C30.3167 27.6064 29.9095 27.406 29.7996 27.1603C29.6898 26.9082 29.7932 26.4232 29.9871 26.2099C31.6677 24.3672 33.3871 22.5504 35.1065 20.7401C35.5783 20.2422 36.0631 20.2358 36.5221 20.7207C38.2415 22.531 39.9415 24.3607 41.6544 26.1711C41.9259 26.462 42.0487 26.7724 41.8871 27.1474C41.7191 27.5418 41.4088 27.7034 40.9886 27.6905C40.5749 27.6775 40.1612 27.6905 39.7087 27.6905C39.7087 29.1129 39.7087 30.4965 39.7087 31.809C41.1631 31.337 42.6304 30.8586 44.1624 30.3607C44.1624 27.587 44.1624 24.6776 44.1624 21.684C43.7164 21.684 43.2574 21.7487 42.8308 21.6646C42.5206 21.6 42.1133 21.406 42.0035 21.1539C41.8936 20.9017 41.9905 20.4168 42.1909 20.2034C43.8844 18.3414 45.6167 16.5181 47.3491 14.6948C47.7822 14.2422 48.2928 14.2487 48.7323 14.7142C50.4517 16.5245 52.1517 18.3543 53.8647 20.1711C54.1556 20.475 54.3171 20.8564 54.0586 21.1862C53.8711 21.4319 53.5092 21.6064 53.1924 21.6711C52.7917 21.7551 52.3651 21.6905 51.8997 21.6905C51.8867 21.878 51.8609 22.0396 51.8609 22.2013C51.8609 25.3435 51.8544 28.4793 51.8738 31.6215C51.8738 31.8219 52.0031 32.1129 52.1647 32.2163C53.8453 33.2637 55.2156 34.628 56.3404 36.3995C56.3404 34.253 56.3404 32.2163 56.3404 30.0956C55.9137 30.0956 55.4677 30.0892 55.0217 30.0956C54.6145 30.1086 54.2654 29.9405 54.1943 29.559C54.1426 29.2681 54.2008 28.8413 54.3818 28.6409C56.0753 26.7853 57.8077 24.9556 59.54 23.1323C60.0054 22.6409 60.4902 22.6474 60.962 23.1452C62.6814 24.9556 64.3944 26.7724 66.075 28.615C66.2689 28.8284 66.3335 29.2745 66.2754 29.5784C66.2107 29.9663 65.8423 30.1086 65.4351 30.0956C65.0084 30.0827 64.5753 30.0956 64.0841 30.0956C64.0841 30.6775 64.0841 31.2012 64.0841 31.725C64.0841 33.2767 64.0905 34.8284 64.0776 36.3801C64.0711 37.0784 63.5864 37.5051 62.9917 37.3306C62.494 37.1818 62.3711 36.7939 62.3711 36.3155C62.3776 34.1237 62.3776 31.9254 62.3776 29.7336C62.3776 28.6991 62.4552 28.5956 63.47 28.3112C62.397 27.1732 61.3369 26.0482 60.2381 24.878C59.1457 26.0353 58.0856 27.1603 57.0449 28.2594C57.3616 28.4469 57.7495 28.5504 57.9175 28.8025C58.0856 29.0482 58.0791 29.4491 58.0791 29.7788C58.0921 33.3543 58.0856 36.9297 58.0856 40.5051C58.0856 40.712 58.0856 40.9189 58.0856 41.0805C59.5206 41.2939 60.9103 41.5008 62.3711 41.7142C62.3711 41.184 62.3647 40.6021 62.3711 40.0267C62.3776 39.3737 62.662 39.031 63.1856 39.0181C63.735 39.0051 64.0582 39.3672 64.0711 40.0331C64.0776 40.712 64.0906 41.3974 64.0647 42.0762C64.0518 42.4254 64.1681 42.6129 64.4784 42.781C67.8073 44.6495 69.9339 47.4426 70.8001 51.1603C72.4807 58.3434 67.4582 65.6042 60.1347 66.5094C58.551 66.7034 56.9286 66.6258 55.3191 66.6516C54.1297 66.671 52.9339 66.6581 51.7445 66.6581C50.8073 66.6581 50.4065 66.4059 50.4 65.8176C50.3936 65.2292 50.8202 64.9447 51.7251 64.9447C53.9358 64.9447 56.1529 64.9512 58.3636 64.9447C64.6917 64.9189 69.6107 59.7982 69.4039 53.4685C69.2099 47.5202 63.9807 42.6711 58.0468 42.9297C57.8982 42.9361 57.743 42.9491 57.5944 42.9491C56.6571 42.962 56.4308 42.7551 56.3597 41.8176C56.0107 37.0137 51.9061 32.8176 47.1552 32.2163C41.4669 31.4987 36.2376 35.3198 35.2293 40.8155C35.0806 41.6366 34.6411 41.8305 33.7426 41.5331C28.4875 39.7939 22.9738 42.8586 21.7004 48.2443C21.5646 48.8262 21.5065 49.4404 21.4612 50.0417C21.3836 50.9857 21.2608 51.115 20.3559 51.309C17.5441 51.9038 15.6825 53.5913 14.9585 56.365C13.808 60.768 17.0851 64.9383 21.6486 64.9512C27.1171 64.9641 32.5791 64.9577 38.0476 64.9577C41.1696 64.9577 44.2917 64.9577 47.4073 64.9577C47.6141 64.9577 47.8274 64.9512 48.0278 65.0029C48.4674 65.1193 48.7 65.4167 48.6677 65.8758C48.6354 66.3348 48.3704 66.5999 47.9114 66.6452C47.7046 66.6646 47.4978 66.6581 47.2909 66.6581C38.8943 66.6581 30.4977 66.587 22.1011 66.6839C16.9494 66.7421 13.5171 62.9728 13.1034 59.2357C13.0969 59.1646 13.0517 59.0934 13.0194 59.0288C13 58.3758 13 57.7292 13 57.0891ZM44.7441 19.9189C45.6943 20.087 45.8818 20.3133 45.8818 21.2185C45.8818 24.0763 45.8818 26.9275 45.8818 29.7853C45.8818 29.9857 45.8818 30.1862 45.8818 30.2896C47.3491 30.5741 48.7259 30.8327 50.1286 31.1043C50.1286 30.9232 50.1286 30.7163 50.1286 30.5094C50.1286 27.4254 50.1286 24.3413 50.1286 21.2638C50.1286 20.3133 50.2966 20.1064 51.2598 19.9125C50.1674 18.7487 49.0943 17.6108 48.0084 16.4534C46.9225 17.6043 45.8624 18.7293 44.7441 19.9189ZM33.665 39.4318C34.4924 36.9943 35.811 34.9448 37.7437 33.2831C37.8795 33.1668 37.9377 32.8887 37.9377 32.6819C37.9506 30.8844 37.9377 29.087 37.9571 27.2896C37.9571 26.9599 37.9829 26.5719 38.1574 26.3327C38.3255 26.1 38.7004 26.0224 39.0171 25.8672C37.9635 24.7487 36.897 23.6172 35.8046 22.4599C34.6928 23.6431 33.6327 24.7745 32.5274 25.9448C33.4582 26.0676 33.665 26.2939 33.665 27.1344C33.665 29.7982 33.665 32.4685 33.665 35.1323C33.665 36.5676 33.665 37.9965 33.665 39.4318Z" fill="white"/>
<path d="M58.0859 53.3521C58.0988 56.462 55.5843 59.003 52.4816 59.0094C49.3919 59.0224 46.8387 56.4814 46.8257 53.3909C46.8128 50.2939 49.3273 47.7594 52.4429 47.7465C55.5584 47.7336 58.0729 50.2228 58.0859 53.3521ZM56.3794 53.3715C56.3794 51.1862 54.6471 49.4534 52.4623 49.4534C50.2969 49.4534 48.5257 51.212 48.5257 53.3715C48.5257 55.5245 50.3098 57.309 52.4558 57.309C54.6212 57.3025 56.3794 55.5374 56.3794 53.3715Z" fill="white"/>
<path d="M34.9383 47.7465C36.0565 47.753 37.0455 48.1409 37.944 48.7746C38.4482 49.1302 38.571 49.6215 38.2866 50.0418C37.9957 50.4685 37.5109 50.5332 36.9938 50.184C36.2311 49.6733 35.4166 49.3241 34.4923 49.4922C34.1044 49.5633 33.6843 49.7444 33.3999 50.0095C32.8311 50.5461 33.0185 51.3543 33.736 51.6646C34.5504 52.0138 35.3843 52.3241 36.1987 52.6733C36.6124 52.8543 37.0326 53.0483 37.3946 53.3133C38.3965 54.0439 38.9782 55.0073 38.6873 56.2939C38.3577 57.7616 37.3364 58.6021 35.9208 58.8931C34.1303 59.2616 32.5596 58.7185 31.2345 57.4707C30.7432 57.0116 30.7109 56.5202 31.1052 56.1388C31.4736 55.7767 31.939 55.809 32.4109 56.2487C33.3288 57.0957 34.3953 57.4901 35.6364 57.212C35.9725 57.1345 36.3086 56.947 36.5736 56.7207C37.2523 56.1258 37.233 55.3241 36.509 54.7875C36.1212 54.503 35.6558 54.322 35.2033 54.1215C34.5117 53.8177 33.8071 53.5526 33.109 53.2551C31.0987 52.4017 30.7691 49.8608 32.5014 48.503C33.2124 47.9405 34.0398 47.7336 34.9383 47.7465Z" fill="white"/>
<path d="M42.0359 49.4857C42.0359 50.5201 42.0359 51.4964 42.0359 52.5309C42.9214 52.5309 43.7682 52.5245 44.615 52.5309C45.3066 52.5374 45.6686 52.8219 45.6815 53.352C45.6944 53.9016 45.3066 54.2249 44.602 54.2314C43.7552 54.2378 42.9085 54.2314 42.0294 54.2314C42.0294 55.2464 42.0294 56.2033 42.0294 57.2507C42.7857 57.2507 43.5355 57.2507 44.2853 57.2507C44.5891 57.2507 44.8929 57.2443 45.1903 57.2701C45.675 57.3154 45.94 57.6128 45.9788 58.0848C46.0176 58.5244 45.6686 58.8994 45.1773 58.9447C44.7636 58.9835 44.3435 58.9641 43.9298 58.9641C43.0572 58.9641 42.191 58.977 41.3184 58.9576C40.575 58.9447 40.2906 58.6538 40.2841 57.9102C40.2777 54.8844 40.2777 51.8585 40.2841 48.8327C40.2841 48.0633 40.588 47.7788 41.3572 47.7788C42.5465 47.7723 43.7423 47.7723 44.9317 47.7788C45.5845 47.7788 45.9853 48.115 45.9788 48.6387C45.9724 49.1559 45.5781 49.4792 44.9187 49.4857C43.9685 49.4857 43.0055 49.4857 42.0359 49.4857Z" fill="white"/>
</svg>
