<svg xmlns="http://www.w3.org/2000/svg" width="85" height="85" viewBox="0 0 85 85" fill="none"><rect width="85" height="85" rx="10" fill="#F48029"></rect><path d="M59.6384 62.6197C59.6384 63.6295 59.6384 64.6155 59.6384 65.6669C59.8285 65.6788 60.0126 65.6907 60.1907 65.6907C61.0399 65.6966 61.8951 65.6847 62.7443 65.7026C63.2728 65.7144 63.5875 66.0233 63.6054 66.4866C63.6232 66.9737 63.3025 67.3064 62.768 67.3539C62.6136 67.3658 62.4533 67.3598 62.2989 67.3598C49.3233 67.3598 36.3417 67.3598 23.3661 67.3598C23.176 67.3598 22.9801 67.3658 22.796 67.3361C22.3268 67.2588 22.0477 66.9143 22.0893 66.4629C22.1309 65.9996 22.404 65.7263 22.8672 65.7085C23.6511 65.6847 24.4291 65.6966 25.2129 65.6907C25.4742 65.6907 25.7296 65.6907 26.0325 65.6907C26.0325 64.6452 26.0325 63.6355 26.0325 62.5722C25.8305 62.5722 25.6465 62.5722 25.4564 62.5722C23.7046 62.5722 21.9468 62.5781 20.1949 62.5722C18.253 62.5603 17 61.301 17 59.3646C17 46.6471 17 33.9236 17 21.2061C17 19.2697 18.253 18.0045 20.1949 18.0045C35.2906 17.9985 50.3862 17.9985 65.4879 18.0045C67.4654 18.0045 68.7125 19.2578 68.7125 21.2358C68.7125 33.9355 68.7125 46.6411 68.7125 59.3408C68.7125 61.307 67.4594 62.5663 65.4879 62.5722C63.5935 62.5781 61.6991 62.5781 59.8047 62.5841C59.7572 62.5841 59.7216 62.5959 59.6384 62.6197ZM67.0259 24.8057C66.6993 24.8057 66.4558 24.8057 66.2124 24.8057C56.1525 24.8057 46.0927 24.8057 36.0329 24.8057C35.3203 24.8057 34.4829 24.5919 33.9307 24.8948C33.3606 25.2037 33.034 26.0056 32.6598 26.6234C32.3451 27.152 31.9294 27.3362 31.3296 27.3302C27.3152 27.3124 23.3007 27.3243 19.2863 27.3243C19.0844 27.3243 18.8825 27.3243 18.645 27.3243C18.645 27.5619 18.645 27.7342 18.645 27.9064C18.645 38.3489 18.645 48.7974 18.645 59.2399C18.645 60.4219 19.1319 60.9031 20.3315 60.9031C21.7567 60.9031 23.182 60.9031 24.6072 60.9031C25.0704 60.9031 25.5336 60.9031 26.0562 60.9031C26.0562 60.6773 26.0562 60.5051 26.0562 60.3388C26.0562 59.3646 26.0562 58.3904 26.0562 57.4163C26.0562 56.4837 26.3056 56.2342 27.2142 56.2283C28.6038 56.2283 29.9934 56.2283 31.383 56.2283C33.0636 56.2283 33.1112 56.2758 33.1112 57.9449C33.1112 58.9132 33.1112 59.8814 33.1112 60.8555C33.7406 60.8555 34.3048 60.8555 34.8986 60.8555C34.8986 60.6061 34.8986 60.3982 34.8986 60.1903C34.8986 55.9135 34.8986 51.6426 34.8986 47.3658C34.8986 46.4808 35.154 46.2313 36.0507 46.2313C37.5769 46.2313 39.109 46.2313 40.6352 46.2313C41.7279 46.2313 41.9298 46.4332 41.9298 47.55C41.9298 51.7733 41.9298 55.9966 41.9298 60.22C41.9298 60.4397 41.9298 60.6536 41.9298 60.8674C42.5712 60.8674 43.1235 60.8674 43.7292 60.8674C43.7292 60.6298 43.7292 60.4219 43.7292 60.22C43.7292 57.3153 43.7292 54.4166 43.7292 51.5119C43.7292 50.6388 43.9786 50.3893 44.8397 50.3893C46.4193 50.3893 47.999 50.3893 49.5846 50.3893C50.5228 50.3893 50.7604 50.6209 50.7604 51.5476C50.7604 54.47 50.7604 57.3866 50.7604 60.3091C50.7604 60.4932 50.7604 60.6773 50.7604 60.8793C51.3839 60.8793 51.9303 60.8793 52.5122 60.8793C52.5122 54.6779 52.5122 48.5004 52.5122 42.2693C52.1381 42.2693 51.764 42.3287 51.4195 42.2515C51.1107 42.1802 50.7247 42.0198 50.5941 41.7763C50.4753 41.5624 50.5466 41.0991 50.7129 40.8853C52.245 38.8657 53.8128 36.8699 55.3865 34.88C55.7903 34.3691 56.3663 34.3572 56.7583 34.8562C58.3438 36.858 59.9175 38.8716 61.4616 40.9031C61.6219 41.117 61.6694 41.5684 61.5506 41.8C61.4319 42.0317 61.0518 42.1921 60.7608 42.2515C60.4045 42.3287 60.0126 42.2693 59.6444 42.2693C59.6444 48.5182 59.6444 54.6898 59.6444 60.909C59.8522 60.909 60.0244 60.909 60.1966 60.909C61.8832 60.909 63.5697 60.909 65.2503 60.909C66.5568 60.909 67.014 60.4516 67.014 59.1686C67.014 47.9242 67.014 36.6798 67.014 25.4354C67.0259 25.2453 67.0259 25.0552 67.0259 24.8057ZM67.02 23.1366C67.02 22.3525 67.0437 21.6397 67.014 20.9329C66.9844 20.2735 66.5271 19.8043 65.8739 19.7033C65.672 19.6736 65.4582 19.6736 65.2503 19.6736C50.3091 19.6736 35.3678 19.6736 20.4265 19.6736C20.2899 19.6736 20.1474 19.6677 20.0108 19.6795C19.1735 19.733 18.6628 20.2498 18.6509 21.0873C18.639 21.9011 18.6509 22.7208 18.6509 23.5346C18.6509 24.2236 18.6509 24.9127 18.6509 25.6611C18.9122 25.6611 19.1141 25.6611 19.316 25.6611C22.6356 25.6611 25.9553 25.6611 29.2689 25.6611C29.9459 25.6611 30.7239 25.8334 31.2583 25.5542C31.775 25.2809 32.0779 24.5503 32.3926 23.9741C32.7489 23.3267 33.2359 23.1247 33.9604 23.1307C44.7328 23.1485 55.5052 23.1425 66.2717 23.1425C66.5093 23.1366 66.729 23.1366 67.02 23.1366ZM57.946 65.6669C57.946 65.4056 57.946 65.1977 57.946 64.9898C57.946 57.2975 57.946 49.5993 57.9519 41.907C57.9519 41.5743 57.9757 41.1704 58.1538 40.9269C58.326 40.6952 58.718 40.6239 59.0446 40.4695C58.0885 39.2458 57.1027 37.9806 56.0872 36.6798C55.0539 38.0044 54.0681 39.2637 53.0586 40.5645C54.0384 40.6596 54.2285 40.8675 54.2285 41.8C54.2285 49.528 54.2285 57.2559 54.2285 64.9898C54.2285 65.2095 54.2285 65.4234 54.2285 65.6669C55.4874 65.6669 56.6811 65.6669 57.946 65.6669ZM36.6149 47.9242C36.6149 53.8701 36.6149 59.7626 36.6149 65.655C37.8441 65.655 39.0318 65.655 40.2255 65.655C40.2255 59.721 40.2255 53.8285 40.2255 47.9242C39.0021 47.9242 37.8263 47.9242 36.6149 47.9242ZM45.4276 65.661C46.6687 65.661 47.8564 65.661 49.062 65.661C49.062 61.1169 49.062 56.5966 49.062 52.0881C47.8327 52.0881 46.6391 52.0881 45.4276 52.0881C45.4276 56.6203 45.4276 61.111 45.4276 65.661ZM27.7724 57.9271C27.7724 60.5229 27.7724 63.083 27.7724 65.6432C29.0136 65.6432 30.2191 65.6432 31.4246 65.6432C31.4246 63.0474 31.4246 60.4991 31.4246 57.9271C30.2013 57.9271 29.0076 57.9271 27.7724 57.9271ZM41.9417 62.6019C41.9417 63.2137 41.9417 63.7839 41.9417 64.3482C41.9417 65.756 41.9417 65.756 43.3432 65.6907C43.3788 65.6907 43.4263 65.7026 43.4441 65.6847C43.5451 65.6016 43.7233 65.5065 43.7233 65.4115C43.7411 64.4789 43.7351 63.5523 43.7351 62.5959C43.1294 62.6019 42.5771 62.6019 41.9417 62.6019ZM50.8019 62.6019C50.8019 63.6473 50.8019 64.6452 50.8019 65.655C51.3958 65.655 51.954 65.655 52.5241 65.655C52.5241 64.6215 52.5241 63.6236 52.5241 62.6019C51.9421 62.6019 51.3958 62.6019 50.8019 62.6019ZM34.8749 65.6669C34.8749 64.6215 34.8749 63.6236 34.8749 62.6138C34.281 62.6138 33.7228 62.6138 33.1527 62.6138C33.1527 63.6473 33.1527 64.6452 33.1527 65.6669C33.7347 65.6669 34.281 65.6669 34.8749 65.6669Z" fill="white"></path><path d="M25.949 22.6792C25.9371 23.1247 25.5571 23.493 25.1117 23.4871C24.6425 23.4811 24.2625 23.0772 24.2862 22.608C24.31 22.1625 24.7019 21.8061 25.1532 21.8239C25.5986 21.8476 25.9609 22.2278 25.949 22.6792Z" fill="white"></path><path d="M22.3448 21.8298C22.7961 21.8238 23.1703 22.1921 23.1762 22.6495C23.1821 23.1069 22.8199 23.487 22.3686 23.493C21.9172 23.4989 21.5431 23.1306 21.5372 22.6733C21.5312 22.2099 21.8876 21.8357 22.3448 21.8298Z" fill="white"></path><path d="M27.8555 23.4931C27.4042 23.4812 27.0478 23.101 27.0538 22.6377C27.0657 22.1803 27.4457 21.818 27.8971 21.8299C28.3484 21.8418 28.7047 22.2219 28.6928 22.6852C28.6869 23.1367 28.3068 23.5049 27.8555 23.4931Z" fill="white"></path></svg>