<svg xmlns="http://www.w3.org/2000/svg" width="85" height="85" viewBox="0 0 85 85" fill="none"><rect width="85" height="85" rx="10" fill="#F48029"></rect><path d="M43.275 43.0107C41.417 43.0107 39.5525 43.0107 37.6945 43.0107C36.4277 43.0107 35.4013 41.9913 35.3948 40.725C35.3688 37.9393 37.5061 35.4653 40.2607 35.1017C40.5595 35.0627 40.8583 35.0432 41.1572 35.0432C42.5929 35.0367 44.0351 35.0432 45.4708 35.0432C48.0435 35.0432 50.3043 36.7705 50.9669 39.2575C51.1228 39.8484 51.2138 40.4458 51.1358 41.0562C50.9929 42.1536 50.0054 43.0107 48.8945 43.0107C47.017 43.0107 45.146 43.0107 43.275 43.0107Z" fill="white"></path><path d="M56.1642 39.355C55.0858 39.355 54.0009 39.355 52.9224 39.355C52.4352 39.355 52.0779 39.0952 51.922 38.6407C51.4218 37.1537 50.5252 35.9784 49.2324 35.0888C48.6347 34.6797 48.6088 33.894 49.1675 33.4329C50.09 32.6797 51.1489 32.2836 52.3443 32.2771C53.6695 32.2706 54.9883 32.2706 56.3136 32.2771C58.7953 32.2836 60.9391 34.1472 61.2705 36.6017C61.3224 36.9849 61.3354 37.394 61.2575 37.7706C61.0626 38.7381 60.2245 39.3485 59.1786 39.355C58.6784 39.355 58.1716 39.355 57.6714 39.355C57.1712 39.3615 56.6709 39.3615 56.1642 39.355C56.1642 39.3615 56.1642 39.3615 56.1642 39.355Z" fill="white"></path><path d="M30.3859 39.3615C29.3789 39.3615 28.372 39.3615 27.3715 39.3615C26.0982 39.3615 25.2147 38.4719 25.2277 37.1991C25.2472 34.8745 27.0467 32.7511 29.3335 32.3745C29.7558 32.303 30.1975 32.2901 30.6263 32.2901C31.9126 32.2836 33.2054 32.2641 34.4917 32.303C35.5961 32.3355 36.5706 32.7641 37.4151 33.4719C37.9544 33.9264 37.8894 34.7056 37.2917 35.1147C36.2718 35.8095 35.4922 36.7121 34.9595 37.829C34.836 38.0822 34.7386 38.3485 34.6411 38.6147C34.4592 39.1212 34.1214 39.368 33.5822 39.368C32.5103 39.3615 31.4513 39.3615 30.3859 39.3615Z" fill="white"></path><path d="M43.2687 26.0369C45.5165 26.0369 47.3225 27.8485 47.316 30.0953C47.3095 32.3291 45.5035 34.1213 43.2557 34.1213C41.0404 34.1213 39.2344 32.3031 39.2344 30.0953C39.2344 27.8485 41.0404 26.0369 43.2687 26.0369Z" fill="white"></path><path d="M50.7461 27.8875C50.7461 25.8875 52.3507 24.2901 54.3517 24.2966C56.3071 24.3031 57.9182 25.9135 57.9182 27.868C57.9182 29.868 56.3136 31.4719 54.3192 31.4719C52.3572 31.4589 50.7461 29.8485 50.7461 27.8875Z" fill="white"></path><path d="M32.2374 24.29C34.2124 24.2965 35.8105 25.9134 35.804 27.9134C35.7975 29.8874 34.1734 31.4653 32.153 31.4653C30.217 31.4589 28.6254 29.829 28.6319 27.855C28.6319 25.8809 30.2495 24.29 32.2374 24.29Z" fill="white"></path><path d="M68.5507 14C68.6732 14.0452 68.7893 14.0968 68.9118 14.129C70.6401 14.6192 71.8203 16.0835 71.9299 17.8832C71.9364 18.0122 71.9364 18.1476 71.9364 18.2766C71.9364 31.1066 71.9364 43.943 71.9364 56.773C71.9364 59.3144 70.2145 61.0303 67.6672 61.0367C62.0051 61.0432 56.3495 61.0367 50.6874 61.0367C50.4488 61.0367 50.2038 61.0367 49.9007 61.0367C49.9007 61.7979 49.9071 62.488 49.9007 63.1782C49.8942 63.8426 49.5782 64.2168 49.0365 64.2039C48.5335 64.191 48.2111 63.8168 48.2046 63.1912C48.1917 62.4945 48.2046 61.7979 48.2046 61.069C44.7094 61.069 41.2657 61.069 37.7833 61.069C37.7833 64.12 37.7833 67.1517 37.7833 70.2286C41.227 70.2286 44.6836 70.2286 48.2046 70.2286C48.2046 69.4739 48.2046 68.7256 48.2046 67.9774C48.2046 67.7903 48.1982 67.5968 48.2111 67.4097C48.2562 66.8421 48.598 66.5067 49.101 66.526C49.5847 66.5454 49.8878 66.8744 49.9007 67.4355C49.9136 68.1709 49.9071 68.9062 49.9071 69.6416C49.9071 69.8287 49.9071 70.0093 49.9071 70.2737C50.868 70.2737 51.7837 70.2737 52.6995 70.2737C52.9058 70.2737 53.1186 70.2544 53.3186 70.2931C53.7635 70.3769 54.0279 70.6737 54.0279 71.1188C54.0344 71.5638 53.77 71.8606 53.3315 71.9573C53.1509 71.996 52.9574 71.9767 52.7704 71.9767C46.2442 71.9767 39.7115 71.9767 33.1853 71.9767C33.0563 71.9767 32.9209 71.9831 32.7919 71.9767C32.2696 71.9444 31.9084 71.5896 31.9149 71.1252C31.9149 70.6608 32.276 70.2931 32.8048 70.2866C33.8624 70.2737 34.9136 70.2802 36.0099 70.2802C36.0099 67.2033 36.0099 64.1587 36.0099 61.0431C35.7519 61.0431 35.5133 61.0431 35.2747 61.0431C29.8577 61.0431 24.4407 60.9722 19.0301 61.0754C16.2958 61.127 14.5159 59.9595 14 57.489C14 44.1623 14 30.8357 14 17.5155C14.2644 16.5866 14.5611 15.6449 15.3801 15.0708C15.9927 14.6386 16.7214 14.3548 17.3921 14.0064C34.4364 14 51.4935 14 68.5507 14ZM70.2403 50.4902C70.2403 50.2515 70.2403 50.0451 70.2403 49.8387C70.2403 39.3632 70.2403 28.8876 70.2403 18.4121C70.2403 16.6189 69.3117 15.6965 67.5254 15.6965C51.1453 15.6965 34.7717 15.6965 18.3917 15.6965C16.6376 15.6965 15.7025 16.6253 15.7025 18.3799C15.7025 28.8747 15.7025 39.3696 15.7025 49.8581C15.7025 50.058 15.7025 50.258 15.7025 50.4838C33.9076 50.4902 52.0481 50.4902 70.2403 50.4902ZM15.7476 52.2641C15.7154 52.3737 15.7025 52.406 15.7025 52.4447C15.6961 53.838 15.696 55.2377 15.696 56.631C15.696 58.4243 16.6182 59.3402 18.4175 59.3402C21.4549 59.3402 24.4923 59.3402 27.5297 59.3402C40.8723 59.3402 54.2085 59.3402 67.5512 59.3402C69.3117 59.3402 70.2403 58.4114 70.2403 56.6568C70.2403 55.3732 70.2403 54.0896 70.2403 52.8059C70.2403 52.6253 70.2274 52.4447 70.2145 52.2641C52.0159 52.2641 33.8882 52.2641 15.7476 52.2641Z" fill="white"></path><path d="M42.9554 54.9475C43.4971 54.9475 44.0453 54.9346 44.587 54.9539C45.148 54.9733 45.4705 55.2764 45.4898 55.7538C45.5092 56.2569 45.1803 56.6246 44.6063 56.6375C43.5165 56.6633 42.4266 56.6633 41.3368 56.6375C40.7499 56.6246 40.4211 56.2827 40.434 55.7796C40.4404 55.2764 40.7757 54.9862 41.3755 54.9539C41.4142 54.9539 41.4529 54.9539 41.4851 54.9539C41.9752 54.941 42.4653 54.941 42.9554 54.9475Z" fill="white"></path></svg>