<svg width="85" height="85" viewBox="0 0 85 85" fill="none" xmlns="http://www.w3.org/2000/svg">
<path d="M0 10C0 4.47715 4.47715 0 10 0H75C80.5228 0 85 4.47715 85 10V75C85 80.5228 80.5228 85 75 85H10C4.47715 85 0 80.5228 0 75V10Z" fill="#F48029"/>
<path d="M36.2298 49.28H28.3698L27.1098 53H21.7398L29.3598 31.94H35.2998L42.9198 53H37.4898L36.2298 49.28ZM34.9098 45.32L32.2998 37.61L29.7198 45.32H34.9098ZM44.2189 44.6C44.2189 42.88 44.5389 41.37 45.1789 40.07C45.8389 38.77 46.7289 37.77 47.8489 37.07C48.9689 36.37 50.2189 36.02 51.5989 36.02C52.7789 36.02 53.8089 36.26 54.6889 36.74C55.5889 37.22 56.2789 37.85 56.7589 38.63V36.26H61.8889V53H56.7589V50.63C56.2589 51.41 55.5589 52.04 54.6589 52.52C53.7789 53 52.7489 53.24 51.5689 53.24C50.2089 53.24 48.9689 52.89 47.8489 52.19C46.7289 51.47 45.8389 50.46 45.1789 49.16C44.5389 47.84 44.2189 46.32 44.2189 44.6ZM56.7589 44.63C56.7589 43.35 56.3989 42.34 55.6789 41.6C54.9789 40.86 54.1189 40.49 53.0989 40.49C52.0789 40.49 51.2089 40.86 50.4889 41.6C49.7889 42.32 49.4389 43.32 49.4389 44.6C49.4389 45.88 49.7889 46.9 50.4889 47.66C51.2089 48.4 52.0789 48.77 53.0989 48.77C54.1189 48.77 54.9789 48.4 55.6789 47.66C56.3989 46.92 56.7589 45.91 56.7589 44.63Z" fill="white"/>
</svg>
