<svg width="85" height="85" viewBox="0 0 85 85" fill="none" xmlns="http://www.w3.org/2000/svg">
<rect width="85" height="85" rx="10" fill="#F48029"/>
<path d="M35.4297 31.0668C35.6233 30.7841 35.7511 30.5363 35.933 30.3427C37.8768 28.3215 39.8128 26.2926 41.7837 24.3023C43.4448 22.6257 45.1292 20.9685 46.8445 19.3422C48.8502 17.4411 51.2818 16.3879 54.0116 16.0897C57.0938 15.7528 59.9939 16.353 62.6037 18.0877C65.7362 20.167 67.9394 22.9742 68.7293 26.6798C69.5114 30.3543 68.857 33.8508 66.7042 36.9755C66.104 37.8506 65.3141 38.6018 64.563 39.3646C61.6705 42.2918 58.7665 45.2114 55.8431 48.1077C53.7057 50.2257 51.0766 51.3563 48.1068 51.6351C44.1921 52.0029 40.7692 50.8297 37.8846 48.1425C37.3309 47.6236 36.8585 47.0351 36.7191 46.2607C36.4868 44.9326 36.9901 43.891 38.0627 43.1359C39.0733 42.4235 40.1575 42.3577 41.2339 43.0082C41.683 43.2831 42.0896 43.6316 42.5117 43.9452C44.8814 45.7186 47.4175 46.009 50.0583 44.6693C50.7978 44.2937 51.429 43.6664 52.0253 43.074C55.1539 39.957 58.2593 36.8206 61.3569 33.6804C62.0926 32.937 62.5069 32.0038 62.6385 30.9739C62.8399 29.425 62.8902 27.853 62.0965 26.4474C60.8342 24.2133 59.0182 22.6219 56.3813 22.2772C54.4918 22.0294 52.7029 22.4399 51.2741 23.7757C49.4039 25.522 47.5957 27.338 45.7681 29.1308C45.0014 29.8781 44.2425 30.6331 43.4952 31.3959C43.3209 31.5701 43.1699 31.5973 42.9415 31.5353C41.3384 31.0939 39.716 30.7803 38.0472 30.8345C37.3115 30.8577 36.5758 30.9584 35.8401 31.0242C35.7278 31.0358 35.6233 31.0474 35.4297 31.0668Z" fill="white"/>
<path d="M49.5396 54.1131C49.3769 54.3184 49.2298 54.5391 49.0517 54.7249C46.7362 57.1372 44.4401 59.565 42.0936 61.9463C40.6764 63.3828 39.2322 64.8 37.7027 66.1165C35.7822 67.7737 33.4938 68.6798 30.9654 68.9198C28.9209 69.1134 26.892 68.9895 24.9792 68.1842C20.2088 66.1823 17.0725 62.7555 16.2012 57.567C15.5198 53.5052 16.5652 49.8307 19.3957 46.795C22.8263 43.1165 26.4196 39.5891 30.1135 36.1662C31.31 35.0549 32.7891 34.4315 34.3069 33.9011C38.0628 32.5885 43.5611 33.3822 47.0653 36.7625C47.6577 37.3356 48.2076 37.9435 48.3508 38.7953C48.5715 40.0847 48.0837 41.0992 47.0615 41.8504C46.078 42.5745 45.0015 42.6829 43.9251 42.0672C43.414 41.7729 42.9493 41.3896 42.4847 41.0179C39.9098 38.958 36.2391 39.0431 33.7881 41.2425C33.0175 41.9356 32.2664 42.6519 31.5345 43.3876C29.1068 45.827 26.7022 48.2935 24.2628 50.7212C22.9657 52.0106 22.2958 53.5478 22.2378 55.3599C22.1758 57.3657 22.9812 59.0229 24.3442 60.4439C25.3315 61.4739 26.4351 62.3219 27.8832 62.5774C29.5559 62.8717 31.2093 62.8717 32.7504 62.0237C33.1027 61.8301 33.4357 61.5746 33.7223 61.2919C36.2662 58.8254 38.8024 56.3551 41.3192 53.8653C41.6716 53.5169 41.9542 53.3929 42.4537 53.5478C44.6143 54.2138 46.8291 54.3416 49.0672 54.0551C49.2066 54.0357 49.3498 54.0357 49.4892 54.028C49.5047 54.0589 49.5241 54.086 49.5396 54.1131Z" fill="white"/>
</svg>
